<mxfile host="app.diagrams.net" modified="2024-04-12T19:23:09.118Z" agent="Mozilla/5.0 (X11; Ubuntu; Linux x86_64; rv:124.0) Gecko/20100101 Firefox/124.0" etag="yiCXv3nOWo3w2ycn_gLP" version="24.2.5" type="github">
  <diagram name="Page-1" id="KJJd6r-f0ampEKgg8GXa">
    <mxGraphModel dx="3515" dy="1938" grid="0" gridSize="10" guides="1" tooltips="1" connect="1" arrows="1" fold="1" page="0" pageScale="1" pageWidth="827" pageHeight="1169" math="0" shadow="0">
      <root>
        <mxCell id="0" />
        <mxCell id="1" parent="0" />
        <mxCell id="zBv2svlLthEIitjvXYNv-2" value="&lt;p style=&quot;margin:0px;margin-top:4px;text-align:center;&quot;&gt;&lt;b&gt;Mario&lt;/b&gt;&lt;/p&gt;&lt;hr size=&quot;1&quot;&gt;&lt;p style=&quot;margin:0px;margin-left:4px;&quot;&gt;- posX : int&lt;/p&gt;&lt;p style=&quot;margin:0px;margin-left:4px;&quot;&gt;- posY : int&lt;/p&gt;&lt;p style=&quot;margin:0px;margin-left:4px;&quot;&gt;- taille&amp;nbsp; :&amp;nbsp; int&lt;/p&gt;&lt;p style=&quot;margin:0px;margin-left:4px;&quot;&gt;- dirX&amp;nbsp;&amp;nbsp; : int &lt;br&gt;&lt;/p&gt;&lt;p style=&quot;margin:0px;margin-left:4px;&quot;&gt;- dirY&amp;nbsp;&amp;nbsp; : int &lt;br&gt;&lt;/p&gt;&lt;p style=&quot;margin:0px;margin-left:4px;&quot;&gt;- mort&amp;nbsp; : int &lt;br&gt;&lt;/p&gt;&lt;hr size=&quot;1&quot;&gt;&lt;p style=&quot;margin:0px;margin-left:4px;&quot;&gt;+ Mario(int ,int ,int ,int,int, int)&lt;/p&gt;&lt;p style=&quot;margin:0px;margin-left:4px;&quot;&gt;+ getPosX() const : int&lt;/p&gt;&lt;p style=&quot;margin:0px;margin-left:4px;&quot;&gt;+ getPos() const : int&lt;/p&gt;&lt;p style=&quot;margin:0px;margin-left:4px;&quot;&gt;+ getTaille() const : int&lt;br&gt;&lt;/p&gt;&lt;p style=&quot;margin:0px;margin-left:4px;&quot;&gt;+ getDirx() const : int &lt;br&gt;&lt;/p&gt;&lt;p style=&quot;margin:0px;margin-left:4px;&quot;&gt;+ getDirY() const : int &lt;br&gt;&lt;/p&gt;&lt;p style=&quot;margin:0px;margin-left:4px;&quot;&gt;&lt;span style=&quot;-webkit-text-size-adjust: auto;&quot;&gt;+ getMort() const : int&amp;nbsp; &amp;nbsp; &lt;br&gt;&lt;/span&gt;&lt;/p&gt;&lt;p style=&quot;margin:0px;margin-left:4px;&quot;&gt;&lt;span style=&quot;-webkit-text-size-adjust: auto;&quot;&gt;+ setTaille(int)&lt;br&gt;&lt;/span&gt;&lt;/p&gt;&lt;p style=&quot;margin:0px;margin-left:4px;&quot;&gt;&lt;span style=&quot;-webkit-text-size-adjust: auto;&quot;&gt;+ deplacerVersLeHaut (Environnement)&lt;br&gt;&lt;/span&gt;&lt;/p&gt;&lt;p style=&quot;margin:0px;margin-left:4px;&quot;&gt;&lt;span style=&quot;-webkit-text-size-adjust: auto;&quot;&gt;+ deplacerVersLaDroite (Environnement)&lt;/span&gt;&lt;/p&gt;&lt;p style=&quot;margin:0px;margin-left:4px;&quot;&gt;&lt;span style=&quot;-webkit-text-size-adjust: auto;&quot;&gt;+ deplacerVersLaGauche (Environnement)&lt;br&gt;&lt;/span&gt;&lt;/p&gt;&lt;p style=&quot;margin:0px;margin-left:4px;&quot;&gt;&lt;span style=&quot;-webkit-text-size-adjust: auto;&quot;&gt;+ deplacement( char, Environnement)&lt;br&gt;&lt;/span&gt;&lt;/p&gt;&lt;p style=&quot;margin:0px;margin-left:4px;&quot;&gt;&lt;span style=&quot;-webkit-text-size-adjust: auto;&quot;&gt;+ updatePos(int ,int)&amp;nbsp; &lt;br&gt;&lt;/span&gt;&lt;/p&gt;&lt;p style=&quot;margin:0px;margin-left:4px;&quot;&gt;+ updateDirY(iny)&lt;/p&gt;&lt;p style=&quot;margin:0px;margin-left:4px;&quot;&gt;+updateMort(int)&lt;br&gt;&lt;/p&gt;&lt;p style=&quot;margin:0px;margin-left:4px;&quot;&gt;&lt;br&gt;&lt;/p&gt;&lt;p style=&quot;margin:0px;margin-left:4px;&quot;&gt;&lt;br&gt;&lt;/p&gt;" style="verticalAlign=top;align=left;overflow=fill;html=1;whiteSpace=wrap;" parent="1" vertex="1">
          <mxGeometry x="1466" y="176" width="162" height="412" as="geometry" />
        </mxCell>
        <mxCell id="zBv2svlLthEIitjvXYNv-3" value="&lt;p style=&quot;margin:0px;margin-top:4px;text-align:center;&quot;&gt;&lt;b&gt;Ennemi&lt;/b&gt;&lt;/p&gt;&lt;hr size=&quot;1&quot;&gt;&lt;p style=&quot;margin:0px;margin-left:4px;&quot;&gt;- posX : int &lt;br&gt;&lt;/p&gt;&lt;p style=&quot;margin:0px;margin-left:4px;&quot;&gt;- posY : int&amp;nbsp;&lt;/p&gt;&lt;p style=&quot;margin:0px;margin-left:4px;&quot;&gt;- directionX : int&lt;/p&gt;&lt;p style=&quot;margin:0px;margin-left:4px;&quot;&gt;- directionY : int&lt;/p&gt;&lt;p style=&quot;margin:0px;margin-left:4px;&quot;&gt;- etat : int&lt;br&gt;&lt;/p&gt;&lt;hr size=&quot;1&quot;&gt;&lt;p style=&quot;margin:0px;margin-left:4px;&quot;&gt;+ Ennemi()&lt;/p&gt;&lt;p style=&quot;margin:0px;margin-left:4px;&quot;&gt;+ getPosX() const : int&lt;/p&gt;&lt;p style=&quot;margin:0px;margin-left:4px;&quot;&gt;+ getPosY() const : int&lt;/p&gt;&lt;p style=&quot;margin:0px;margin-left:4px;&quot;&gt;+ getDirX() const&amp;nbsp; : int&lt;/p&gt;&lt;p style=&quot;margin:0px;margin-left:4px;&quot;&gt;+ getDirY () const : int &lt;br&gt;&lt;/p&gt;&lt;p style=&quot;margin:0px;margin-left:4px;&quot;&gt;+ getEtat () const : int&lt;/p&gt;&lt;div&gt;&amp;nbsp;+ deplacementAuto (int,int)&lt;/div&gt;&lt;div&gt;&amp;nbsp;+ updateDirY&amp;nbsp; ()&lt;/div&gt;&lt;div&gt;&amp;nbsp;+ updatepos(int,int)&lt;/div&gt;&lt;div&gt;&amp;nbsp;+ updateEtat (int)&lt;br&gt;&lt;/div&gt;&lt;p style=&quot;margin:0px;margin-left:4px;&quot;&gt;&lt;br&gt;&lt;/p&gt;" style="verticalAlign=top;align=left;overflow=fill;html=1;whiteSpace=wrap;" parent="1" vertex="1">
          <mxGeometry x="303" y="-127" width="188" height="262.5" as="geometry" />
        </mxCell>
        <mxCell id="zBv2svlLthEIitjvXYNv-16" value="&lt;p style=&quot;margin:0px;margin-top:4px;text-align:center;&quot;&gt;Champignon&lt;br&gt;&lt;/p&gt;&lt;hr size=&quot;1&quot;&gt;&lt;p style=&quot;margin:0px;margin-left:4px;&quot;&gt;- posX : int &lt;br&gt;&lt;/p&gt;&lt;p style=&quot;margin:0px;margin-left:4px;&quot;&gt;- posY : int&amp;nbsp;&lt;/p&gt;&lt;p style=&quot;margin:0px;margin-left:4px;&quot;&gt;- directionX : int&lt;/p&gt;&lt;p style=&quot;margin:0px;margin-left:4px;&quot;&gt;- directionY : int&lt;/p&gt;-&amp;nbsp; vie&amp;nbsp; : int&lt;p style=&quot;margin:0px;margin-left:4px;&quot;&gt;&lt;/p&gt;&lt;hr size=&quot;1&quot;&gt;&lt;p style=&quot;margin:0px;margin-left:4px;&quot;&gt;+ Champignon()&lt;/p&gt;&lt;p style=&quot;margin:0px;margin-left:4px;&quot;&gt;+ Champignon(int,int,int)&lt;/p&gt;&lt;p style=&quot;margin:0px;margin-left:4px;&quot;&gt;+ getPosX() const : int&lt;/p&gt;&lt;p style=&quot;margin:0px;margin-left:4px;&quot;&gt;+ getPosY() const : int &lt;br&gt;&lt;/p&gt;&lt;p style=&quot;margin:0px;margin-left:4px;&quot;&gt;+ getDirX() const : int&lt;/p&gt;&lt;p style=&quot;margin:0px;margin-left:4px;&quot;&gt;+ getDirY() const : int &lt;br&gt;&lt;/p&gt;&lt;p style=&quot;margin:0px;margin-left:4px;&quot;&gt;+ getViv() const : int&lt;/p&gt;&lt;p style=&quot;margin:0px;margin-left:4px;&quot;&gt;+ updateViv() const : int&lt;/p&gt;&lt;p style=&quot;margin:0px;margin-left:4px;&quot;&gt;+ updateDirY();&lt;/p&gt;&lt;p style=&quot;margin:0px;margin-left:4px;&quot;&gt;+ updatepos(int,int)&lt;br&gt;&lt;/p&gt;&lt;p style=&quot;margin:0px;margin-left:4px;&quot;&gt;&lt;br&gt;&lt;/p&gt;" style="verticalAlign=top;align=left;overflow=fill;html=1;whiteSpace=wrap;movable=1;resizable=1;rotatable=1;deletable=1;editable=1;locked=0;connectable=1;" parent="1" vertex="1">
          <mxGeometry x="995" y="-203" width="173" height="271" as="geometry" />
        </mxCell>
        <mxCell id="zBv2svlLthEIitjvXYNv-20" value="&lt;p style=&quot;margin:0px;margin-top:4px;text-align:center;&quot;&gt;Environnement&lt;br&gt;&lt;/p&gt;&lt;hr size=&quot;1&quot;&gt;&lt;p style=&quot;margin:0px;margin-left:4px;&quot;&gt;&lt;/p&gt;&lt;pre style=&quot;-webkit-text-size-adjust: auto;&quot;&gt;&lt;code class=&quot;!whitespace-pre hljs language-markdown&quot;&gt;&lt;pre&gt;&lt;code class=&quot;!whitespace-pre hljs language-markdown&quot;&gt;- env: char[int][int]&lt;br&gt;- tableau: char[int][int]&lt;br&gt;- nb_ennemi: int&lt;br&gt;&lt;/code&gt;&lt;/pre&gt;&lt;/code&gt;&lt;/pre&gt;&lt;hr size=&quot;1&quot;&gt;&lt;pre style=&quot;-webkit-text-size-adjust: auto;&quot;&gt;&lt;code class=&quot;!whitespace-pre hljs language-markdown&quot;&gt;&lt;pre&gt;&lt;code class=&quot;!whitespace-pre hljs language-markdown&quot;&gt;+ Environnement()&lt;br&gt;+ getDimx () const : int&lt;br&gt;+ getDimy () const : int &lt;br&gt;+ getNbEnnemi() const : int &lt;br&gt;+ getTab(int , int) const : char&lt;br&gt;+ getEnv(int, int ) const : char&lt;br&gt;+ updateTab(int, int,char) &lt;br&gt;+ updateEnv(int int, char)&lt;br&gt;+ copie()&lt;br&gt;+ afficher(int)&lt;br&gt;+ Niveau2()&lt;br&gt;&lt;/code&gt;&lt;/pre&gt;&lt;/code&gt;&lt;br&gt;&lt;/pre&gt;" style="verticalAlign=top;align=left;overflow=fill;html=1;whiteSpace=wrap;movable=1;resizable=1;rotatable=1;deletable=1;editable=1;locked=0;connectable=1;" parent="1" vertex="1">
          <mxGeometry x="11" y="263" width="267" height="270" as="geometry" />
        </mxCell>
        <mxCell id="YrsYOrnD6e3rv8pSUdm8-2" style="edgeStyle=orthogonalEdgeStyle;rounded=0;orthogonalLoop=1;jettySize=auto;html=1;entryX=1;entryY=0.5;entryDx=0;entryDy=0;" edge="1" parent="1" source="zBv2svlLthEIitjvXYNv-19" target="zBv2svlLthEIitjvXYNv-20">
          <mxGeometry relative="1" as="geometry" />
        </mxCell>
        <mxCell id="YrsYOrnD6e3rv8pSUdm8-4" style="edgeStyle=orthogonalEdgeStyle;rounded=0;orthogonalLoop=1;jettySize=auto;html=1;entryX=0.5;entryY=1;entryDx=0;entryDy=0;" edge="1" parent="1" source="zBv2svlLthEIitjvXYNv-19" target="zBv2svlLthEIitjvXYNv-16">
          <mxGeometry relative="1" as="geometry">
            <mxPoint x="1133" y="165.33333333333326" as="targetPoint" />
          </mxGeometry>
        </mxCell>
        <mxCell id="YrsYOrnD6e3rv8pSUdm8-9" style="edgeStyle=orthogonalEdgeStyle;rounded=0;orthogonalLoop=1;jettySize=auto;html=1;exitX=0;exitY=0.25;exitDx=0;exitDy=0;" edge="1" parent="1" source="zBv2svlLthEIitjvXYNv-19" target="zBv2svlLthEIitjvXYNv-3">
          <mxGeometry relative="1" as="geometry">
            <mxPoint x="537" y="133.33333333333326" as="targetPoint" />
          </mxGeometry>
        </mxCell>
        <mxCell id="YrsYOrnD6e3rv8pSUdm8-11" style="edgeStyle=orthogonalEdgeStyle;rounded=0;orthogonalLoop=1;jettySize=auto;html=1;exitX=1;exitY=0.75;exitDx=0;exitDy=0;entryX=0;entryY=0.5;entryDx=0;entryDy=0;" edge="1" parent="1" source="zBv2svlLthEIitjvXYNv-19" target="zBv2svlLthEIitjvXYNv-2">
          <mxGeometry relative="1" as="geometry" />
        </mxCell>
        <mxCell id="zBv2svlLthEIitjvXYNv-19" value="&lt;p style=&quot;margin:0px;margin-top:4px;text-align:center;&quot;&gt;Jeu&lt;/p&gt;&lt;hr size=&quot;1&quot;&gt;&lt;p style=&quot;margin:0px;margin-left:4px;&quot;&gt;&lt;/p&gt;&lt;pre style=&quot;-webkit-text-size-adjust: auto;&quot;&gt;&lt;code class=&quot;!whitespace-pre hljs language-markdown&quot;&gt;- mario : Mario &lt;br&gt;- ennemi: Ennemi[int] &lt;br&gt;- champi: Champignon&lt;br&gt;- environnement: Environnement&lt;br&gt;- niveau : int        &lt;/code&gt;&lt;/pre&gt;&lt;hr size=&quot;1&quot;&gt;&lt;pre style=&quot;-webkit-text-size-adjust: auto;&quot;&gt;&lt;code class=&quot;!whitespace-pre hljs language-markdown&quot;&gt;+ Jeu()&lt;br&gt;+ getMario()const : const &lt;br&gt;  Mario&amp;amp;&lt;br&gt;+ getEnnemi(int)const : const &lt;br&gt;  Ennemi&amp;amp;&lt;br&gt;+ getChampignon() const : const&lt;br&gt;  Champignon&amp;amp;&lt;br&gt;+ getEnvironnement() const : &lt;br&gt;  const Environnement&amp;amp;&lt;br&gt;+ getNiveau() const : int&lt;br&gt;&lt;/code&gt;+ setNiv(int) &lt;br&gt;+ getNombreDeEnnemi()const: int&lt;br&gt;+ deplacementAutoEnnemi(int, int)&lt;br&gt;+ actionClavier(const char) : bool&lt;br&gt;+ graite()&lt;br&gt;+ collecterPiece(int) :int&lt;br&gt;+ mangerEnnemi(int) : int&lt;br&gt;+ mangerChampignon()&lt;br&gt;+ bonus()&lt;br&gt;+ fin_niveau()&lt;br&gt;+ niveau_suiv()&lt;br&gt;+ jouer() &lt;br&gt;&lt;br&gt;&lt;/pre&gt;" style="verticalAlign=top;align=left;overflow=fill;html=1;whiteSpace=wrap;movable=1;resizable=1;rotatable=1;deletable=1;editable=1;locked=0;connectable=1;" parent="1" vertex="1">
          <mxGeometry x="832" y="176" width="253" height="463" as="geometry" />
        </mxCell>
        <mxCell id="zBv2svlLthEIitjvXYNv-26" value="&lt;p style=&quot;margin:0px;margin-top:4px;text-align:center;&quot;&gt;SDLSprite&lt;br&gt;&lt;/p&gt;&lt;hr size=&quot;1&quot;&gt;&lt;p style=&quot;margin:0px;margin-left:4px;&quot;&gt;&lt;/p&gt;&lt;pre style=&quot;-webkit-text-size-adjust: auto;&quot;&gt;&lt;code class=&quot;!whitespace-pre hljs language-markdown&quot;&gt;&lt;pre&gt;&lt;code class=&quot;!whitespace-pre hljs language-markdown&quot;&gt;&lt;pre&gt;&lt;code class=&quot;!whitespace-pre hljs language-markdown&quot;&gt;- &lt;/code&gt;&lt;code class=&quot;!whitespace-pre hljs language-plaintext&quot;&gt;- m_surface: SDL_Surface* &lt;br&gt;- m_texture: SDL_Texture* &lt;/code&gt;&lt;/pre&gt;&lt;/code&gt;&lt;/pre&gt;&lt;/code&gt;&lt;/pre&gt;&lt;hr size=&quot;1&quot;&gt;&lt;pre style=&quot;-webkit-text-size-adjust: auto;&quot;&gt;&lt;code class=&quot;!whitespace-pre hljs language-plaintext&quot;&gt;+ SDLSprite()&lt;br&gt;+ ~SDLSprite()&lt;br&gt;+ SDLSprite(const SDLSprite &amp;amp;) &lt;br&gt;+ operator=(const SDLSprite &amp;amp;): &lt;br&gt;  SDLSprite&amp;amp;&lt;br&gt;+ loadFromFile(const char*,&lt;br&gt;  SDL_Renderer*)&lt;br&gt;+ loadFromCurrentSurface(renderer: &lt;br&gt;SDL_Renderer*) &lt;br&gt;+ draw(SDL_Renderer*,int,  int,&lt;br&gt;int , int)&lt;br&gt;+ getTexture() const: SDL_Texture*&lt;br&gt;+ setSurface(SDL_Surface*)&lt;/code&gt;&lt;/pre&gt;" style="verticalAlign=top;align=left;overflow=fill;html=1;whiteSpace=wrap;movable=1;resizable=1;rotatable=1;deletable=1;editable=1;locked=0;connectable=1;" parent="1" vertex="1">
          <mxGeometry x="928" y="821" width="267" height="292" as="geometry" />
        </mxCell>
        <mxCell id="YrsYOrnD6e3rv8pSUdm8-7" style="edgeStyle=orthogonalEdgeStyle;rounded=0;orthogonalLoop=1;jettySize=auto;html=1;exitX=1;exitY=0.25;exitDx=0;exitDy=0;entryX=0.012;entryY=0.778;entryDx=0;entryDy=0;entryPerimeter=0;" edge="1" parent="1" source="zBv2svlLthEIitjvXYNv-35" target="zBv2svlLthEIitjvXYNv-19">
          <mxGeometry relative="1" as="geometry">
            <mxPoint x="294.33333333333326" y="633.3333333333333" as="targetPoint" />
          </mxGeometry>
        </mxCell>
        <mxCell id="YrsYOrnD6e3rv8pSUdm8-10" style="edgeStyle=orthogonalEdgeStyle;rounded=0;orthogonalLoop=1;jettySize=auto;html=1;exitX=1;exitY=0.75;exitDx=0;exitDy=0;entryX=0;entryY=0.5;entryDx=0;entryDy=0;" edge="1" parent="1" source="zBv2svlLthEIitjvXYNv-35" target="zBv2svlLthEIitjvXYNv-26">
          <mxGeometry relative="1" as="geometry">
            <mxPoint x="410.3333333333335" y="905" as="targetPoint" />
          </mxGeometry>
        </mxCell>
        <mxCell id="zBv2svlLthEIitjvXYNv-35" value="&lt;p style=&quot;margin:0px;margin-top:4px;text-align:center;&quot;&gt;SDLJeu&lt;br&gt;&lt;/p&gt;&lt;hr size=&quot;1&quot;&gt;&lt;p style=&quot;margin:0px;margin-left:4px;&quot;&gt;&lt;/p&gt;&lt;pre style=&quot;-webkit-text-size-adjust: auto;&quot;&gt;&lt;code class=&quot;!whitespace-pre hljs language-markdown&quot;&gt;&lt;pre&gt;&lt;code class=&quot;!whitespace-pre hljs language-markdown&quot;&gt;&lt;pre&gt;&lt;code class=&quot;!whitespace-pre hljs language-markdown&quot;&gt;-&lt;/code&gt;&lt;code class=&quot;!whitespace-pre hljs language-plaintext&quot;&gt; window: SDL_Window*&lt;br&gt;- renderer: SDL_Renderer*&lt;br&gt;- sound: Mix_Music*&lt;br&gt;- withSound: bool&lt;br&gt;- im_mario1: SDLSprite&lt;br&gt;- im_mario2: SDLSprite&lt;br&gt;- im_mario_o_D1: SDLSprite&lt;br&gt;- im_mario_o_D2: SDLSprite&lt;br&gt;- im_mario_1_G1: SDLSprite&lt;br&gt;- im_mario_1_G2: SDLSprite&lt;br&gt;- im_mario_o_G1: SDLSprite&lt;br&gt;- im_mario_o_G2: SDLSprite&lt;br&gt;- im_enn: SDLSprite&lt;br&gt;- im_enn_mort: SDLSprite&lt;br&gt;- im_tuyau: SDLSprite&lt;br&gt;- im_piece: SDLSprite&lt;br&gt;- im_bloc: SDLSprite&lt;br&gt;- im_brick: SDLSprite&lt;br&gt;- im_brick1: SDLSprite&lt;br&gt;- im_nuage1: SDLSprite&lt;br&gt;- im_nuage2: SDLSprite&lt;br&gt;- im_brickS: SDLSprite&lt;br&gt;- im_brickK: SDLSprite&lt;br&gt;- im_brickS1: SDLSprite&lt;br&gt;- im_drapeau: SDLSprite&lt;br&gt;- im_champignon: SDLSprite&lt;br&gt;- im_champignon1: SDLSprite&lt;/code&gt;&lt;/pre&gt;&lt;/code&gt;&lt;/pre&gt;&lt;/code&gt;&lt;/pre&gt;&lt;hr size=&quot;1&quot;&gt;&lt;pre style=&quot;-webkit-text-size-adjust: auto;&quot;&gt;&lt;code class=&quot;!whitespace-pre hljs language-plaintext&quot;&gt;+ SDLJeu()&lt;br/&gt;+ ~SDLJeu()&lt;br/&gt;+ sdlBoucle()&lt;br/&gt;+ sdlAff()&lt;/code&gt;&lt;/pre&gt;" style="verticalAlign=top;align=left;overflow=fill;html=1;whiteSpace=wrap;movable=1;resizable=1;rotatable=1;deletable=1;editable=1;locked=0;connectable=1;" parent="1" vertex="1">
          <mxGeometry x="379" y="548" width="198" height="519" as="geometry" />
        </mxCell>
      </root>
    </mxGraphModel>
  </diagram>
</mxfile>
